:SAMPLES-PER-SECOND 30
:FULLY-SPECIFIED
:DEGREES
74
root  1.56436 38.5508 7.52263 172.136 -34.9866 -159.636
RightUpLeg  -7.25888 -1.30581 13.1684
RightLeg  13.254 -24.5836 -3.01087
RightFoot  -5.33913 -0.574726 10.2351
RightToes  6.35927e-011 1.30204e-014 -6.03759e-014
Spine  10.4561 -1.3011 -2.1452
Spine1  -0.45659 -9.73539 42.6748
HEad  17.5516 14.491 -12.512
LeftShoulder1  1.95272 -3.67629 -20.7915
LeftArm  40.1569 20.6485 -57.1434
LeftForeArm  54.4579 -44.9744 -7.55739
LeftHand  -1.24417 -3.06758 17.2405
RightShoulder  1.26743 1.09729 21.3133
RightArm  -35.8428 -22.2368 39.317
RightForeArm  -14.6534 72.0687 42.2574
RightHand  -1.78537 1.40882 -30.0761
LeftUpLeg  -37.2487 39.5591 21.7181
LeftLeg  32.6161 1.88816 1.63552
LeftFoot  19.662 2.77529 -10.4183
LeftToes  7.40077e-010 7.2695e-011 -6.03601e-011
75
root  1.30417 38.9566 7.62489 173.59 -34.1626 -163.31
RightUpLeg  -5.58028 -1.461 10.5505
RightLeg  11.2938 -23.6485 -3.64722
RightFoot  -3.80777 -0.689515 10.0644
RightToes  6.35927e-011 1.30204e-014 -6.03759e-014
Spine  10.4758 -1.67046 -1.22125
Spine1  1.18305 -9.23955 36.4177
HEad  18.3003 12.4975 -11.1265
LeftShoulder1  2.01223 -3.87421 -20.8773
LeftArm  41.363 18.6706 -57.2157
LeftForeArm  51.1715 -40.6554 -6.41968
LeftHand  -1.11696 -2.7896 16
RightShoulder  1.28416 1.19245 21.0917
RightArm  -31.4288 -23.8534 40.0847
RightForeArm  -13.606 69.9387 35.9854
RightHand  -1.59273 1.93028 -25.0449
LeftUpLeg  -31.3057 38.9178 19.5626
LeftLeg  26.755 3.30313 2.13247
LeftFoot  16.9139 2.22587 -9.24919
LeftToes  7.40077e-010 7.2695e-011 -6.03601e-011
76
root  1.01338 39.4777 7.81682 176.006 -33.2276 -168.755
RightUpLeg  -4.05585 -2.39342 6.11331
RightLeg  9.12831 -21.805 -4.04968
RightFoot  -2.03474 -0.774303 9.32926
RightToes  6.35927e-011 1.30204e-014 -6.03759e-014
Spine  10.8354 -2.43621 -0.123977
Spine1  2.79428 -8.42522 27.32
HEad  17.7766 10.8439 -9.57556
LeftShoulder1  1.99194 -3.97989 -20.1744
LeftArm  41.1891 17.2958 -56.4771
LeftForeArm  47.8165 -38.0247 -5.87659
LeftHand  -0.961773 -3.01571 13.4987
RightShoulder  1.31442 1.35632 20.7656
RightArm  -23.3705 -26.4252 41.6246
RightForeArm  -6.25247 69.5616 34.2715
RightHand  -1.08537 2.19382 -16.5949
LeftUpLeg  -24.9027 37.6724 15.6083
LeftLeg  19.1677 6.20561 2.71631
LeftFoot  17.1768 1.87009 -7.78235
LeftToes  7.40077e-010 7.2695e-011 -6.03601e-011
77
root  0.704467 39.9333 7.99885 178.95 -32.548 -174.644
RightUpLeg  -3.30967 -4.29306 0.629678
RightLeg  7.6352 -19.1609 -3.9545
RightFoot  -0.732975 -0.800136 8.54163
RightToes  6.35927e-011 1.30204e-014 -6.03759e-014
Spine  10.9194 -3.51572 0.584704
Spine1  4.10339 -7.75751 18.2228
HEad  16.2362 9.82305 -7.97266
LeftShoulder1  2.00429 -4.15803 -19.6847
LeftArm  40.3825 16.7908 -54.1206
LeftForeArm  46.9685 -38.3558 -6.01778
LeftHand  -0.933398 -3.70939 12.1503
RightShoulder  1.39984 1.71389 20.5275
RightArm  -14.1075 -28.8045 43.0449
RightForeArm  5.63847 70.7742 35.5576
RightHand  -0.41213 2.64813 -6.23814
LeftUpLeg  -19.1867 32.7986 11.8229
LeftLeg  11.9062 13.0111 2.32172
LeftFoot  19.7608 1.75328 -6.73469
LeftToes  7.40077e-010 7.2695e-011 -6.03601e-011
78
root  0.3979 40.203 8.10104 -178.609 -31.9646 -179.336
RightUpLeg  -3.0557 -6.4477 -4.22033
RightLeg  7.00812 -16.3217 -3.58756
RightFoot  -0.167925 -0.827482 8.431
RightToes  6.35927e-011 1.30204e-014 -6.03759e-014
Spine  10.6722 -4.33344 1.54488
Spine1  4.96746 -6.97954 10.8252
HEad  14.7153 8.82061 -6.35104
LeftShoulder1  2.08022 -4.5249 -19.4193
LeftArm  39.7179 16.6099 -51.3519
LeftForeArm  48.7958 -40.6515 -6.55321
LeftHand  -0.830169 -4.5871 9.93068
RightShoulder  1.47575 2.08541 20.0622
RightArm  -5.61719 -31.3647 44.2264
RightForeArm  19.5633 73.2489 40.6916
RightHand  0.212194 3.34598 2.57334
LeftUpLeg  -14.0253 21.4211 11.1527
LeftLeg  6.53077 25.7096 -0.112666
LeftFoot  22.1606 1.85486 -6.61303
LeftToes  7.40077e-010 7.2695e-011 -6.03601e-011
79
root  0.152009 40.3183 8.12713 -177.341 -31.0518 177.993
RightUpLeg  -2.77002 -7.99612 -7.29937
RightLeg  6.56544 -13.7711 -3.06546
RightFoot  0.0110678 -0.871142 8.74884
RightToes  6.35927e-011 1.30204e-014 -6.03759e-014
Spine  10.3928 -4.44498 3.2648
Spine1  5.60835 -5.70016 5.18315
HEad  13.6981 7.43461 -4.96054
LeftShoulder1  2.10754 -4.76246 -18.9725
LeftArm  39.1601 16.0042 -49.5178
LeftForeArm  51.6297 -43.3265 -7.18145
LeftHand  -0.500127 -5.37548 5.694
RightShoulder  1.49499 2.2694 19.5085
RightArm  0.625395 -34.2059 45.1715
RightForeArm  34.1589 76.0953 50.9574
RightHand  0.643621 3.18899 8.45456
LeftUpLeg  -11.3366 15.8091 9.87543
LeftLeg  2.90068 31.7741 -2.00823
LeftFoot  23.2075 2.11047 -7.24913
LeftToes  7.40077e-010 7.2695e-011 -6.03601e-011
80
root  0.00547006 40.3716 8.09469 -176.941 -29.9603 176.898
RightUpLeg  -2.35574 -8.8435 -8.80021
RightLeg  5.86425 -11.7858 -2.42931
RightFoot  0.172918 -0.899762 8.91901
RightToes  6.35927e-011 1.30204e-014 -6.03759e-014
Spine  10.0487 -4.08187 5.14011
Spine1  6.35168 -4.21587 1.04731
HEad  12.9864 6.11583 -4.04562
LeftShoulder1  2.01774 -4.5839 -18.3803
LeftArm  38.7255 14.767 -48.6861
LeftForeArm  53.686 -45.177 -7.64632
LeftHand  -0.158039 -6.00559 1.94643
RightShoulder  1.48373 2.26691 19.3115
RightArm  4.47257 -36.2396 45.5716
RightForeArm  46.7161 77.8318 62.2194
RightHand  0.856874 2.51017 12.3452
LeftUpLeg  -9.49605 14.0921 9.3382
LeftLeg  0.394047 34.1039 -3.47469
LeftFoot  23.5787 2.2366 -7.5743
LeftToes  7.40077e-010 7.2695e-011 -6.03601e-011
81
root  -0.0181914 40.4067 8.00119 -176.804 -29.4046 176.441
RightUpLeg  -1.94151 -9.30925 -9.45078
RightLeg  5.28089 -10.74 -1.90959
RightFoot  0.227122 -0.901271 8.89542
RightToes  6.35927e-011 1.30204e-014 -6.03759e-014
Spine  9.60968 -3.70442 5.67532
Spine1  7.07938 -3.34445 -0.755343
HEad  12.5201 5.61586 -3.64743
LeftShoulder1  1.8835 -4.16666 -17.9573
LeftArm  38.5038 13.5949 -48.4556
LeftForeArm  54.2817 -45.7158 -7.79037
LeftHand  -0.0538795 -6.41771 0.867188
RightShoulder  1.47686 2.2235 19.393
RightArm  6.65232 -36.6033 45.1779
RightForeArm  52.4641 78.347 67.3814
RightHand  1.00192 2.07461 15.2999
LeftUpLeg  -8.39232 13.7721 9.14019
LeftLeg  -1.35172 34.9183 -4.4616
LeftFoot  24.0937 2.23523 -7.46277
LeftToes  7.40077e-010 7.2695e-011 -6.03601e-011
82
root  0.108249 40.4064 7.85662 -176.923 -29.6283 176.453
RightUpLeg  -1.7241 -9.23102 -9.18345
RightLeg  5.46094 -11.0198 -1.95399
RightFoot  -0.0886445 -0.86985 8.80586
RightToes  6.35927e-011 1.30204e-014 -6.03759e-014
Spine  9.49821 -3.32022 4.04061
Spine1  7.28734 -3.44407 0.912851
HEad  12.5321 6.06394 -3.72202
LeftShoulder1  1.81568 -3.90963 -17.8867
LeftArm  38.3465 13.2717 -48.8675
LeftForeArm  53.6639 -45.1293 -7.63539
LeftHand  -0.14703 -6.41855 1.78744
RightShoulder  1.48768 2.25878 19.425
RightArm  7.19439 -35.6248 44.0149
RightForeArm  51.2284 78.1966 65.2898
RightHand  1.14084 2.49586 16.4786
LeftUpLeg  -8.09362 13.9616 9.50527
LeftLeg  -1.61327 34.567 -4.66832
LeftFoot  24.5293 2.32881 -7.66263
LeftToes  7.40077e-010 7.2695e-011 -6.03601e-011
